<?xml version="1.0" standalone="no"?>
<!DOCTYPE svg PUBLIC "-//W3C//DTD SVG 20010904//EN"
 "http://www.w3.org/TR/2001/REC-SVG-20010904/DTD/svg10.dtd">
<svg version="1.0" xmlns="http://www.w3.org/2000/svg"
 width="256.000000pt" height="256.000000pt" viewBox="0 0 256.000000 256.000000"
 preserveAspectRatio="xMidYMid meet">

<g transform="translate(0.000000,256.000000) scale(0.100000,-0.100000)"
fill="#000000" stroke="none">
<path d="M960 1515 l0 -955 40 0 40 0 0 499 0 499 510 218 c281 121 510 221
510 224 0 5 -1080 470 -1093 470 -4 0 -7 -430 -7 -955z"/>
<path d="M1188 953 l-68 -4 0 -121 0 -121 40 -34 c33 -29 40 -41 40 -72 0 -71
-82 -121 -200 -121 -118 0 -200 50 -200 121 0 31 7 43 40 72 l40 34 0 101 c0
56 -4 102 -9 102 -29 0 -199 -57 -268 -90 -263 -127 -263 -313 0 -440 444
-213 1305 -165 1565 89 91 88 91 174 0 262 -117 115 -374 196 -696 219 -125 9
-151 10 -284 3z m541 -259 c21 -18 31 -35 31 -54 0 -19 -10 -36 -31 -54 -44
-37 -134 -37 -178 0 -21 18 -31 35 -31 54 0 19 10 36 31 54 25 22 41 26 89 26
48 0 64 -4 89 -26z"/>
</g>
</svg>
